<?xml version="1.0" encoding="utf-8"?>
<!-- Generator: Adobe Illustrator 17.1.0, SVG Export Plug-In . SVG Version: 6.00 Build 0)  -->
<!DOCTYPE svg PUBLIC "-//W3C//DTD SVG 1.1//EN" "http://www.w3.org/Graphics/SVG/1.1/DTD/svg11.dtd">
<svg version="1.1" id="レイヤー_1" xmlns="http://www.w3.org/2000/svg" xmlns:xlink="http://www.w3.org/1999/xlink" x="0px"
	 y="0px" viewBox="0 0 400 400" enable-background="new 0 0 400 400" xml:space="preserve">
<g>
	<path fill="#FFFFFF" d="M373.05,8.264c0,5.239,0.178,5.239,0.178,10.479c0,5.238,0.295,5.238,0.295,10.477
		c0,5.239-0.723,5.239-0.723,10.479c0,5.239,0.292,5.239,0.292,10.478c0,5.239,0.542,5.239,0.542,10.478
		c0,5.24,0.115,5.24,0.115,10.48c0,5.239-0.119,5.239-0.119,10.478c0,5.24,0.075,5.24,0.075,10.48c0,5.239-0.666,5.239-0.666,10.478
		c0,5.24-0.254,5.24-0.254,10.48c0,5.239,0.73,5.239,0.73,10.478c0,5.24,0.5,5.24,0.5,10.479c0,5.24-1.092,5.24-1.092,10.48
		c0,5.239,0.728,5.239,0.728,10.479c0,5.24-0.185,5.24-0.185,10.48c0,5.24,0.405,5.24,0.405,10.481c0,5.24-0.968,5.24-0.968,10.48
		c0,5.238,0.259,5.238,0.259,10.475c0,5.239,0.966,5.239,0.966,10.477c0,5.238-0.221,5.238-0.221,10.477
		c0,5.24-0.78,5.24-0.78,10.48c0,5.239,0.034,5.239,0.034,10.477c0,5.24,0.203,5.24,0.203,10.48c0,5.241-0.375,5.241-0.375,10.482
		c0,5.24,1.238,5.24,1.238,10.48c0,5.24-0.785,5.24-0.785,10.48c0,5.241,0.477,5.241,0.477,10.481c0,5.242-0.953,5.242-0.953,10.483
		c0,5.241,0.74,5.241,0.74,10.481c0,5.241,0.046,5.241,0.046,10.482c0,5.24,0.32,5.24,0.32,10.48c0,5.24-0.546,5.24-0.546,10.48
		c0,5.241,0.418,5.241,0.418,10.482c0,5.243-1.232,5.243-1.232,10.486c0,5.241,1.192,5.241,1.192,10.483
		c0,5.245-0.612,5.245-0.612,10.49c0,5.245-0.521,5.245-0.521,10.49"/>
	<path fill="none" stroke="#8A5A25" stroke-width="4.3751" stroke-miterlimit="10" d="M373.05,8.264
		c0,5.239,0.178,5.239,0.178,10.479c0,5.238,0.295,5.238,0.295,10.477c0,5.239-0.723,5.239-0.723,10.479
		c0,5.239,0.292,5.239,0.292,10.478c0,5.239,0.542,5.239,0.542,10.478c0,5.24,0.115,5.24,0.115,10.48
		c0,5.239-0.119,5.239-0.119,10.478c0,5.24,0.075,5.24,0.075,10.48c0,5.239-0.666,5.239-0.666,10.478c0,5.24-0.254,5.24-0.254,10.48
		c0,5.239,0.73,5.239,0.73,10.478c0,5.24,0.5,5.24,0.5,10.479c0,5.24-1.092,5.24-1.092,10.48c0,5.239,0.728,5.239,0.728,10.479
		c0,5.24-0.185,5.24-0.185,10.48c0,5.24,0.405,5.24,0.405,10.481c0,5.24-0.968,5.24-0.968,10.48c0,5.238,0.259,5.238,0.259,10.475
		c0,5.239,0.966,5.239,0.966,10.477c0,5.238-0.221,5.238-0.221,10.477c0,5.24-0.78,5.24-0.78,10.48
		c0,5.239,0.034,5.239,0.034,10.477c0,5.24,0.203,5.24,0.203,10.48c0,5.241-0.375,5.241-0.375,10.482c0,5.24,1.238,5.24,1.238,10.48
		c0,5.24-0.785,5.24-0.785,10.48c0,5.241,0.477,5.241,0.477,10.481c0,5.242-0.953,5.242-0.953,10.483
		c0,5.241,0.74,5.241,0.74,10.481c0,5.241,0.046,5.241,0.046,10.482c0,5.24,0.32,5.24,0.32,10.48c0,5.24-0.546,5.24-0.546,10.48
		c0,5.241,0.418,5.241,0.418,10.482c0,5.243-1.232,5.243-1.232,10.486c0,5.241,1.192,5.241,1.192,10.483
		c0,5.245-0.612,5.245-0.612,10.49c0,5.245-0.521,5.245-0.521,10.49"/>
</g>
<polyline fill="none" stroke="#8A5A25" stroke-width="4.3751" stroke-linecap="round" stroke-miterlimit="10" points="
	349.584,33.765 373.038,5.241 397.732,33.765 "/>
<polyline fill="none" stroke="#8A5A25" stroke-width="4.3751" stroke-linecap="round" stroke-miterlimit="10" points="
	397.526,367.51 374.071,396.034 349.377,367.51 "/>
</svg>
